HIERARCHY
ROOT Hips
{
 OFFSET 0.000000 0.000000 0.000000
 CHANNELS 6 Xposition Yposition Zposition Yrotation Xrotation Zrotation
 JOINT Chest
 {
  OFFSET 0.000000 9.585900 0.002600
  CHANNELS 3 Yrotation Xrotation Zrotation
  JOINT Chest2
  {
   OFFSET 0.000000 9.601200 -0.005300
   CHANNELS 3 Yrotation Xrotation Zrotation
   JOINT Chest3
   {
    OFFSET 0.000000 9.561800 0.000000
    CHANNELS 3 Yrotation Xrotation Zrotation
    JOINT Chest4
    {
     OFFSET 0.000000 9.552100 0.000000
     CHANNELS 3 Yrotation Xrotation Zrotation
     JOINT Neck
     {
      OFFSET 0.000000 14.453000 0.000000
      CHANNELS 3 Yrotation Xrotation Zrotation
      JOINT Head
      {
       OFFSET 0.000000 8.936500 -0.011300
       CHANNELS 3 Yrotation Xrotation Zrotation
       End Site
       {
        OFFSET 0.000000 17.073600 -0.006000
       }
      }
     }
     JOINT RightCollar
     {
      OFFSET -2.921100 9.558500 0.000000
      CHANNELS 3 Yrotation Xrotation Zrotation
      JOINT RightShoulder
      {
       OFFSET -13.519700 0.000000 0.000000
       CHANNELS 3 Yrotation Xrotation Zrotation
       JOINT RightElbow
       {
        OFFSET 0.000000 -29.696600 0.000000
        CHANNELS 3 Yrotation Xrotation Zrotation
        JOINT RightWrist
        {
         OFFSET 0.000000 -24.004700 0.000000
         CHANNELS 3 Yrotation Xrotation Zrotation
         End Site
         {
          OFFSET 0.000000 -17.728500 0.000000
         }
        }
       }
      }
     }
     JOINT LeftCollar
     {
      OFFSET 2.921100 9.558500 0.000000
      CHANNELS 3 Yrotation Xrotation Zrotation
      JOINT LeftShoulder
      {
       OFFSET 13.519700 0.000000 0.000000
       CHANNELS 3 Yrotation Xrotation Zrotation
       JOINT LeftElbow
       {
        OFFSET 0.000000 -29.696600 0.000000
        CHANNELS 3 Yrotation Xrotation Zrotation
        JOINT LeftWrist
        {
         OFFSET 0.000000 -24.004700 0.000000
         CHANNELS 3 Yrotation Xrotation Zrotation
         End Site
         {
          OFFSET 0.000000 -17.728500 0.000000
         }
        }
       }
      }
     }
    }
   }
  }
 }
 JOINT RightHip
 {
  OFFSET -7.771700 -0.012900 -0.001300
  CHANNELS 3 Yrotation Xrotation Zrotation
  JOINT RightKnee
  {
   OFFSET 0.000000 -40.869800 0.001200
   CHANNELS 3 Yrotation Xrotation Zrotation
   JOINT RightAnkle
   {
    OFFSET 0.000000 -39.717900 0.002100
    CHANNELS 3 Yrotation Xrotation Zrotation
    JOINT RightToe
    {
     OFFSET 0.000000 -4.965400 11.033500
     CHANNELS 3 Yrotation Xrotation Zrotation
     End Site
     {
      OFFSET 0.000000 -1.423100 5.872300
     }
    }
   }
  }
 }
 JOINT LeftHip
 {
  OFFSET 7.771700 -0.012900 -0.001300
  CHANNELS 3 Yrotation Xrotation Zrotation
  JOINT LeftKnee
  {
   OFFSET 0.000000 -40.869800 0.001200
   CHANNELS 3 Yrotation Xrotation Zrotation
   JOINT LeftAnkle
   {
    OFFSET 0.000000 -39.717900 0.002100
    CHANNELS 3 Yrotation Xrotation Zrotation
    JOINT LeftToe
    {
     OFFSET 0.000000 -4.965400 11.033500
     CHANNELS 3 Yrotation Xrotation Zrotation
     End Site
     {
      OFFSET 0.000000 -1.423100 5.872300
     }
    }
   }
  }
 }
}
MOTION
Frames: 16
Frame Time: 0.008333
0.000000 85.388000 0.000000 0.000000 -5.767877 0.000000 0.000000 11.653817 0.000000 0.000000 -5.885947 0.000000 0.000000 -0.000000 0.000000 0.000000 -0.000000 0.000000 0.000000 12.528835 0.000000 0.000000 0.711642 0.000000 0.000000 -0.000000 0.000000 0.000000 0.000000 -90.000000 0.000000 -2.309062 0.000000 0.000000 2.309062 0.000000 0.000000 -0.000000 0.000000 0.000000 -0.000000 90.000000 0.000000 -2.309062 0.000000 0.000000 2.309062 0.000000 0.000000 8.520406 0.000000 0.000000 1.905762 0.000000 -0.000000 -4.658285 0.000000 0.000000 -0.000000 0.000000 0.000000 8.520406 0.000000 0.000000 1.905762 0.000000 -0.000000 -4.658285 0.000000 0.000000 -0.000000 0.000000
-55.380178 44.039944 21.987587 174.761986 -44.853739 1.019639 1.577520 22.278469 2.479080 0.098858 3.205773 0.367813 0.197852 5.093975 0.596760 1.032154 18.824831 2.342625 2.947974 18.334549 -5.841460 4.548299 -6.109944 -7.017075 17.948013 -2.147829 -8.298043 17.351582 -40.024075 -20.278988 76.137739 -33.492443 -84.058390 9.941762 -16.360288 -79.126577 -23.589419 -1.697917 -2.231101 -5.251651 -32.826329 3.365424 -99.334305 -24.703782 118.490453 -8.154759 -11.087014 67.338496 -0.255109 -46.795014 8.153590 -142.782161 66.278575 -142.389914 -10.171050 -26.505670 8.645783 -0.009961 -0.568148 -0.050032 4.211457 -35.430096 -2.144520 173.067247 62.524755 174.105199 -2.072123 -37.481372 2.270099 0.109292 0.275154 0.074791
-55.384176 44.041238 21.993160 174.783956 -44.907477 1.027068 1.563579 22.270895 2.457011 0.102189 3.206822 0.367180 0.195775 5.099820 0.593284 1.011341 18.838810 2.325010 2.954672 18.336871 -5.839671 4.522167 -6.178316 -7.070379 17.924559 -2.128986 -8.280989 17.378750 -39.923685 -20.334386 76.332404 -33.454160 -84.339116 9.953668 -16.337345 -79.127745 -23.545490 -1.652265 -2.244623 -5.298558 -32.801410 3.394368 -99.633932 -24.641185 118.882295 -8.215482 -11.077174 67.325538 -0.223198 -46.741566 8.094485 -142.796494 66.291693 -142.392850 -10.160588 -26.498423 8.650728 -0.028791 -0.587640 -0.039594 4.220144 -35.385560 -2.164684 173.053478 62.533128 174.096263 -2.093092 -37.452873 2.277673 0.112886 0.268493 0.074348
-55.387946 44.042015 21.999810 174.797221 -44.967233 1.036109 1.551227 22.287186 2.437347 0.108268 3.191695 0.365698 0.192081 5.105692 0.589735 0.986756 18.857500 2.305594 2.925548 18.281302 -5.884871 4.513349 -6.202075 -7.086166 17.909933 -2.122602 -8.266369 17.416262 -39.833598 -20.396539 76.507412 -33.401766 -84.578462 9.964111 -16.312191 -79.135513 -23.456266 -1.626672 -2.303112 -5.419067 -32.757688 3.485660 -99.947152 -24.568649 119.287480 -8.280543 -11.076044 67.278010 -0.184362 -46.682225 8.039108 -142.792745 66.306375 -142.374748 -10.160849 -26.485126 8.663146 -0.029580 -0.589559 -0.046028 4.236869 -35.334983 -2.183233 173.041756 62.538097 174.095525 -2.110145 -37.427657 2.282605 0.117951 0.260322 0.077838
-55.390205 44.038750 22.010649 174.818298 -45.002812 1.024436 1.535629 22.308557 2.433861 0.110241 3.154212 0.359053 0.188982 5.112244 0.585633 0.962088 18.872993 2.287068 2.881920 18.226123 -5.934218 4.498928 -6.228066 -7.103420 17.901205 -2.123028 -8.256938 17.444066 -39.787089 -20.409890 76.674388 -33.281786 -84.758309 9.977484 -16.280785 -79.152187 -23.394111 -1.600420 -2.338000 -5.505417 -32.744719 3.564643 -100.264175 -24.493095 119.682050 -8.355421 -11.077581 67.212169 -0.167037 -46.649222 8.006916 -142.790195 66.321701 -142.359576 -10.140968 -26.473332 8.668048 -0.045235 -0.589460 -0.053315 4.246168 -35.322745 -2.182879 173.037624 62.533643 174.106856 -2.133985 -37.392860 2.293822 0.126127 0.245895 0.081129
-55.393231 44.040050 22.016495 174.832524 -45.085113 1.019901 1.519907 22.336407 2.425299 0.107808 3.159044 0.356439 0.170496 5.076441 0.564753 0.975179 18.944234 2.298956 2.816050 18.175167 -5.983651 4.461837 -6.266106 -7.132715 17.877297 -2.142042 -8.259554 17.497262 -39.705466 -20.502249 76.803575 -33.203691 -84.915288 9.994409 -16.244431 -79.166200 -23.338770 -1.600654 -2.385832 -5.653666 -32.788631 3.728824 -100.546227 -24.466016 120.028050 -8.435938 -11.070666 67.143666 -0.158585 -46.568982 7.985447 -142.774806 66.334983 -142.345279 -10.111727 -26.432984 8.652728 -0.076531 -0.618477 -0.040537 4.239871 -35.250795 -2.177778 173.004486 62.536165 174.078918 -2.155778 -37.365128 2.294797 0.123867 0.235613 0.080434
-55.399100 44.039160 22.023751 174.856667 -45.155287 1.019076 1.481056 22.309610 2.385111 0.101143 3.166168 0.351252 0.171486 5.119453 0.569063 0.943082 18.948042 2.269113 2.774081 18.153781 -6.013005 4.412816 -6.297711 -7.159233 17.882285 -2.148654 -8.230079 17.557651 -39.633580 -20.597128 76.906575 -33.100194 -85.019034 10.010571 -16.205765 -79.159036 -23.239941 -1.575953 -2.435649 -5.813178 -32.840665 3.906848 -100.857393 -24.441226 120.365611 -8.517400 -11.050324 67.083169 -0.147028 -46.501935 7.950515 -142.750987 66.346472 -142.325432 -10.090043 -26.395670 8.638663 -0.039833 -0.628911 -0.020720 4.234649 -35.195218 -2.183430 172.958856 62.543327 174.033285 -2.189330 -37.331274 2.309065 0.128407 0.234338 0.072832
-55.403764 44.036947 22.031727 174.867659 -45.218908 1.014927 1.468790 22.359057 2.378762 0.084097 3.110073 0.330607 0.169533 5.135605 0.567516 0.909437 18.945061 2.235955 2.723894 18.144541 -6.039706 4.351850 -6.319353 -7.180669 17.844200 -2.205585 -8.207700 17.629000 -39.547127 -20.572477 77.007100 -32.914918 -85.080374 10.023980 -16.168961 -79.125226 -23.125958 -1.545893 -2.492854 -5.994237 -32.889279 4.104510 -101.194626 -24.423308 120.701661 -8.596995 -11.025994 67.039694 -0.129191 -46.444988 7.924263 -142.728698 66.355372 -142.300366 -10.062462 -26.352149 8.621835 -0.050049 -0.646027 -0.008939 4.230168 -35.146711 -2.176777 172.956334 62.542897 174.030251 -2.200559 -37.307037 2.318102 0.128501 0.226037 0.071957
-55.408807 44.034931 22.038839 174.861921 -45.286635 1.021510 1.455789 22.369303 2.356523 0.077195 3.105223 0.319648 0.178578 5.169416 0.579330 0.871635 18.911511 2.192248 2.650951 18.138215 -6.069013 4.279128 -6.327761 -7.194744 17.849840 -2.210901 -8.166752 17.684030 -39.484172 -20.667896 77.059447 -32.793435 -85.091403 10.035603 -16.137223 -79.067950 -23.016190 -1.511814 -2.554145 -6.214392 -32.948893 4.342281 -101.541736 -24.426119 121.021933 -8.672078 -10.999290 67.013248 -0.111157 -46.386263 7.906695 -142.697487 66.360845 -142.275853 -10.033249 -26.301280 8.607294 -0.062638 -0.673614 0.003046 4.232760 -35.086854 -2.172438 172.956232 62.543858 174.029361 -2.200359 -37.296364 2.320288 0.130962 0.229341 0.068538
-55.416144 44.031838 22.046300 174.856689 -45.346034 1.039300 1.411337 22.299752 2.275079 0.103230 3.202690 0.356704 0.175893 5.170080 0.577877 0.837578 18.866952 2.143148 2.566704 18.144882 -6.093686 4.192823 -6.322508 -7.200893 17.858783 -2.205666 -8.115980 17.724645 -39.429610 -20.735445 77.096219 -32.642609 -85.064794 10.048886 -16.109804 -78.993059 -22.938182 -1.440038 -2.577733 -6.423192 -33.042638 4.580125 -101.896806 -24.441881 121.326369 -8.744562 -10.957579 66.996548 -0.083608 -46.339456 7.868660 -142.695977 66.368225 -142.284176 -10.001342 -26.248833 8.597246 -0.098520 -0.693304 0.000665 4.244012 -35.036246 -2.181259 172.948800 62.548963 174.018195 -2.208643 -37.280362 2.329496 0.133354 0.233601 0.065160
-55.422525 44.028090 22.053960 174.870106 -45.399851 1.038420 1.383561 22.301184 2.240186 0.105831 3.220858 0.361423 0.143890 5.069751 0.525266 0.851170 18.914225 2.146392 2.469728 18.163639 -6.115520 4.091898 -6.304531 -7.200746 17.866496 -2.194194 -8.061969 17.741572 -39.385113 -20.714742 77.134656 -32.404995 -85.018380 10.062345 -16.085662 -78.911842 -22.814712 -1.374664 -2.661080 -6.749936 -33.115390 4.919524 -102.260604 -24.462090 121.612881 -8.815674 -10.902469 66.981709 -0.080702 -46.290945 7.851914 -142.688104 66.380198 -142.287268 -9.999646 -26.216280 8.596183 -0.091926 -0.663104 -0.009993 4.233485 -34.998492 -2.183309 172.941929 62.555119 174.008465 -2.220255 -37.252553 2.334787 0.142849 0.238197 0.063910
-55.425926 44.025446 22.060241 174.885660 -45.461901 1.021565 1.369876 22.344960 2.239209 0.078358 3.105710 0.311374 0.150596 5.099197 0.532245 0.847662 18.925363 2.129597 2.359263 18.192066 -6.134831 3.975687 -6.276397 -7.194329 17.870477 -2.181427 -8.007854 17.797881 -39.378984 -20.878491 77.080729 -32.292219 -84.840507 10.070709 -16.063371 -78.832364 -22.695372 -1.298236 -2.749466 -7.108691 -33.201910 5.296962 -102.630711 -24.481917 121.868704 -8.886281 -10.851200 66.961276 -0.097265 -46.231209 7.858178 -142.688479 66.388193 -142.293554 -9.999264 -26.197123 8.590516 -0.088091 -0.650213 -0.010165 4.196490 -34.952939 -2.156145 172.958289 62.553316 174.010595 -2.228431 -37.230508 2.338797 0.146520 0.230797 0.063686
-55.429290 44.023180 22.065685 174.887901 -45.525022 1.018454 1.336688 22.285228 2.182292 0.091993 3.172676 0.335452 0.147440 5.071694 0.517079 0.838946 18.914600 2.105011 2.233132 18.226084 -6.150533 3.841474 -6.242801 -7.179872 17.865507 -2.168379 -7.952619 17.862198 -39.385108 -21.008370 77.001646 -32.116027 -84.622664 10.075104 -16.038501 -78.751437 -22.599210 -1.213287 -2.823775 -7.472170 -33.312913 5.693513 -102.999021 -24.500248 122.079824 -8.963865 -10.815001 66.932464 -0.089887 -46.174871 7.852212 -142.705086 66.392948 -142.309171 -10.007773 -26.180716 8.589593 -0.098078 -0.639457 -0.011945 4.179319 -34.899508 -2.140344 172.968634 62.553122 174.013684 -2.232629 -37.217739 2.340988 0.146228 0.232194 0.063493
-55.432515 44.020853 22.070744 174.876021 -45.585339 1.029185 1.329516 22.257098 2.141560 0.096248 3.223197 0.352805 0.148423 5.067698 0.514949 0.822788 18.859743 2.065074 2.089897 18.261625 -6.162684 3.687736 -6.208430 -7.157211 17.847435 -2.153464 -7.895887 17.954107 -39.392745 -21.139249 76.881340 -31.898642 -84.362901 10.080942 -16.012884 -78.662202 -22.507038 -1.133627 -2.904698 -7.869879 -33.434437 6.131747 -103.356186 -24.513832 122.242483 -9.057256 -10.798361 66.893393 -0.066083 -46.118561 7.846489 -142.723422 66.407475 -142.332466 -10.037341 -26.176483 8.606796 -0.111927 -0.615145 -0.019774 4.183237 -34.846256 -2.136304 172.967128 62.553056 174.012156 -2.232012 -37.200324 2.344225 0.147223 0.235418 0.060567
-55.434085 44.018677 22.075337 174.885478 -45.645266 1.018511 1.320226 22.246210 2.120934 0.089145 3.160041 0.326987 0.152661 5.094647 0.522917 0.823092 18.868054 2.055513 1.930093 18.295047 -6.170439 3.515082 -6.177293 -7.125514 17.818370 -2.137431 -7.834737 18.096535 -39.407488 -21.320685 76.691376 -31.670143 -84.036084 10.089961 -15.995802 -78.558112 -22.411896 -1.063367 -2.991645 -8.305599 -33.563202 6.609515 -103.686423 -24.511836 122.350168 -9.172441 -10.805333 66.844404 -0.076343 -46.060222 7.861925 -142.710824 66.405346 -142.323558 -10.068160 -26.185951 8.613881 -0.099212 -0.592369 -0.016979 4.159418 -34.796950 -2.124195 172.984961 62.551918 174.026179 -2.217502 -37.185017 2.336821 0.146844 0.235039 0.059289
-55.433528 44.016414 22.079799 174.902345 -45.702764 0.991206 1.315180 22.231830 2.115487 0.087916 3.135008 0.316552 0.151540 5.083509 0.516444 0.822156 18.876755 2.046301 1.755185 18.324640 -6.171967 3.324683 -6.151158 -7.083075 17.784173 -2.118876 -7.766987 18.292926 -39.431828 -21.564189 76.426182 -31.440128 -83.634195 10.102440 -15.992177 -78.435601 -22.305650 -1.000330 -3.082240 -8.785156 -33.699230 7.120322 -103.977483 -24.482555 122.395060 -9.307413 -10.834671 66.793462 -0.122869 -46.002732 7.926651 -142.628443 66.388718 -142.262512 -10.109708 -26.190094 8.623449 -0.066612 -0.572902 0.000030 4.126719 -34.752728 -2.099888 172.992325 62.548597 174.034551 -2.203744 -37.167916 2.328548 0.143664 0.233724 0.056665
